
<svg width="25px" height="20px" viewBox="0 0 25 20" version="1.1" xmlns="http://www.w3.org/2000/svg" xmlns:xlink="http://www.w3.org/1999/xlink">
    <g id="website-personal" stroke="none" stroke-width="1" fill="none" fill-rule="evenodd">
        <g id="Artboard-Copy" transform="translate(-989.000000, -519.000000)" fill="#FFFFFF">
            <g id="Rectangle-24-Copy-2-+-Shape-Copy" transform="translate(989.000000, 519.000000)">
                <path d="M24.3958763,2.35415519 C23.497971,2.75364553 22.5345317,3.0245753 21.5222606,3.14553109 C22.5558582,2.52406166 23.3470512,1.53832396 23.7220388,0.367350194 C22.7525004,0.942870834 21.682309,1.36077271 20.5419992,1.58731466 C19.6288664,0.609221758 18.3300231,0 16.8893884,0 C14.1255544,0 11.8845981,2.25008998 11.8845981,5.023668 C11.8845981,5.41703449 11.9288057,5.80123525 12.0141915,6.16862546 C7.855485,5.95889404 4.16783499,3.95832041 1.69974161,0.918375484 C1.2683086,1.65923973 1.02287452,2.52250068 1.02287452,3.44399812 C1.02287452,5.18745063 1.90706703,6.72577459 3.24860325,7.62577856 C2.42843008,7.59824131 1.65704876,7.37169935 0.981736312,6.99514339 L0.981736312,7.05790271 C0.981736312,9.49166779 2.70742848,11.5228606 4.99562191,11.9851503 C4.57638686,12.0984213 4.13431054,12.1611806 3.67696683,12.1611806 C3.35380067,12.1611806 3.04127782,12.1290405 2.73485395,12.0678021 C3.37205774,14.0653338 5.21972949,15.517924 7.40886434,15.557749 C5.69688491,16.9047531 3.53824496,17.7052947 1.19364594,17.7052947 C0.789678266,17.7052947 0.391769712,17.6807994 0,17.6364116 C2.21504554,19.0645465 4.84474194,19.8972283 7.67108058,19.8972283 C16.8772702,19.8972283 21.9095258,12.2407905 21.9095258,5.60074961 L21.8927437,4.95022197 C22.8759948,4.24606072 23.726623,3.36134633 24.3958763,2.35415519 L24.3958763,2.35415519 Z" id="Shape"></path>
            </g>
        </g>
    </g>
</svg>