
<svg width="25px" height="25px" viewBox="0 0 25 25" version="1.1" xmlns="http://www.w3.org/2000/svg" xmlns:xlink="http://www.w3.org/1999/xlink">
    <defs></defs>
    <g id="website-personal" stroke="none" stroke-width="1" fill="none" fill-rule="evenodd">
        <g id="Artboard-Copy" transform="translate(-1159.000000, -516.000000)" fill="#FFFFFF">
            <g id="Rectangle-24-Copy-+-instagram12-Copy" transform="translate(1159.000000, 516.000000)">
                <path d="M12.2965369,2.21926486 C15.5798763,2.21926486 15.9687557,2.23178099 17.2653785,2.291037 C18.4642811,2.34584392 19.1153747,2.546493 19.5487212,2.71511841 C20.1226442,2.93855074 20.5323173,3.20549616 20.9625887,3.63647121 C21.3928601,4.06744627 21.6593697,4.47778928 21.8823884,5.05265085 C22.0507873,5.48670605 22.2511088,6.13886444 22.3058262,7.33967878 C22.3649855,8.63847088 22.3774812,9.02798628 22.3774812,12.3166951 C22.3774812,15.6054039 22.3649855,15.9949193 22.3058262,17.2936625 C22.2511088,18.4945257 22.0507873,19.1466841 21.8823884,19.5807393 C21.6593697,20.1556009 21.3928601,20.5659439 20.9625887,20.996919 C20.5323173,21.427894 20.1226442,21.6948394 19.5487212,21.9182229 C19.1153747,22.0868972 18.4642811,22.2875463 17.2653785,22.3423532 C15.968951,22.4016092 15.5800715,22.4141253 12.2965369,22.4141253 C9.01300231,22.4141253 8.62412287,22.4016092 7.32769535,22.3423532 C6.12879276,22.2875463 5.47769914,22.0868972 5.04440143,21.9182229 C4.47042962,21.6948394 4.06075657,21.427894 3.63048517,20.996919 C3.20021376,20.5659439 2.93370419,20.1556009 2.71068546,19.5807393 C2.54228656,19.1466841 2.34196507,18.4945257 2.28724763,17.2937114 C2.22808837,15.9949193 2.21559268,15.6054039 2.21559268,12.3166951 C2.21559268,9.02798628 2.22808837,8.63847088 2.28724763,7.33972767 C2.34196507,6.13886444 2.54228656,5.48670605 2.71068546,5.05265085 C2.93370419,4.47778928 3.20021376,4.06744627 3.63048517,3.63647121 C4.06075657,3.20549616 4.47042962,2.93855074 5.04440143,2.71511841 C5.47769914,2.546493 6.12879276,2.34584392 7.32764654,2.291037 C8.62431811,2.23178099 9.01319756,2.21926486 12.2965369,2.21926486 M12.2965369,0 C15.6361069,0 16.0548588,0.0141784193 17.366369,0.0741189094 C18.6752434,0.133961617 19.5690755,0.342139926 20.3512762,0.646633704 C21.1598839,0.961394613 21.8456335,1.38254256 22.5292354,2.06726243 C23.2128374,2.7519823 23.6332977,3.43885338 23.9475447,4.24878336 C24.2515413,5.03226326 24.4593798,5.9275571 24.5191248,7.23857198 C24.5789674,8.55222698 24.5931227,8.97166374 24.5931227,12.3166951 C24.5931227,15.6617265 24.5789674,16.0811632 24.5191248,17.3948182 C24.4593798,18.7058331 24.2515413,19.6011269 23.9475447,20.3846068 C23.6332977,21.1945368 23.2128374,21.8814079 22.5292354,22.5661278 C21.8456335,23.2508476 21.1598839,23.6719956 20.3512762,23.9867565 C19.5690755,24.2912503 18.6752434,24.4994286 17.366369,24.5592713 C16.0548588,24.6192118 15.6361069,24.6333413 12.2965369,24.6333413 C8.95696697,24.6333413 8.53826383,24.6192118 7.22670482,24.5592713 C5.91783042,24.4994286 5.02399832,24.2912503 4.2417976,23.9867565 C3.43318999,23.6719956 2.74744035,23.2508476 2.06383842,22.5661278 C1.38023648,21.8814079 0.959776141,21.1944879 0.645529139,20.3846068 C0.341532506,19.6011269 0.133694088,18.7058331 0.0739490848,17.3948182 C0.0141064591,16.0811632 0,15.6617265 0,12.3166951 C0,8.97166374 0.0141064591,8.55222698 0.0739490848,7.23857198 C0.133694088,5.9275571 0.341532506,5.03226326 0.645529139,4.24878336 C0.959776141,3.43885338 1.38023648,2.7519823 2.06383842,2.06726243 C2.74744035,1.38254256 3.43318999,0.961394613 4.2417976,0.646633704 C5.02399832,0.342139926 5.91783042,0.133961617 7.22670482,0.0741189094 C8.53826383,0.0141784193 8.95696697,0 12.2965369,0 Z M12.2965369,5.99189779 C8.80916642,5.99189779 5.98206606,8.82362148 5.98206606,12.3166951 C5.98206606,15.8097687 8.80916642,18.6414924 12.2965369,18.6414924 C15.7839074,18.6414924 18.6110078,15.8097687 18.6110078,12.3166951 C18.6110078,8.82362148 15.7839074,5.99189779 12.2965369,5.99189779 Z M12.2965369,16.4222764 C10.0328163,16.4222764 8.19765874,14.5841177 8.19765874,12.3166951 C8.19765874,10.0492725 10.0328163,8.21111377 12.2965369,8.21111377 C14.5602575,8.21111377 16.3954151,10.0492725 16.3954151,12.3166951 C16.3954151,14.5841177 14.5602575,16.4222764 12.2965369,16.4222764 Z M20.3360471,5.74201538 C20.3360471,4.92572955 19.6754353,4.26403739 18.8604822,4.26403739 C18.0455291,4.26403739 17.3848685,4.92572955 17.3848685,5.74201538 C17.3848685,6.5583012 18.0455291,7.22004225 18.8604822,7.22004225 C19.6754353,7.22004225 20.3360471,6.5583012 20.3360471,5.74201538 Z" id="Combined-Shape"></path>
            </g>
        </g>
    </g>
</svg>